<svg xmlns="http://www.w3.org/2000/svg" viewBox="0 0 64 64">
    <defs>
        <style>.cls-1{fill:#0072ff;}</style>
    </defs>
    <title>Time Video Camera</title>
    <g id="Layer_2" data-name="Layer 2">
        <path class="cls-1"
            d="M11.92,52H36.23a7.86,7.86,0,0,0,7.86-7.86V19.89A7.86,7.86,0,0,0,36.23,12H11.92A7.92,7.92,0,0,0,4,19.95V44.05A7.92,7.92,0,0,0,11.92,52ZM24,19.94A12,12,0,1,1,12,32,12,12,0,0,1,24,19.94Z" />
        <path class="cls-1"
            d="M56.15,17.89l-6.32,3.24A3.27,3.27,0,0,0,48.06,24V40a3.27,3.27,0,0,0,1.77,2.9l6.32,3.25A2.64,2.64,0,0,0,60,43.76V20.24A2.64,2.64,0,0,0,56.15,17.89Z" />
        <path class="cls-1"
            d="M20,37h3.37A2.63,2.63,0,0,0,26,34.37V29a2,2,0,0,0-2.34-2A2.07,2.07,0,0,0,22,29.11v3.15a.74.74,0,0,1-.74.74H20.11A2.07,2.07,0,0,0,18,34.66,2,2,0,0,0,20,37Z" />
    </g>
</svg>